# xmcd 2.0 CD database file
#
# Track frame offsets:
#	183
#	15063
#	28475
#	41400
#	52845
#	71178
#	85905
#	100785
#	115388
#	129705
#	145785
#	161555
#	174893
#	189123
#	201388
#	215293
#	229973
#	239750
#	252123
#	266685
#	288918
#
# Disc length: 4064 seconds
#
# Revision: 1
# Processed by: cddbd v1.4PL0 Copyright (c) Steve Scherf et al.
# Submitted via: wdb2cddb 1.0
#
DISCID=280fde15
DTITLE=Jimmy Reed - Jimmy Reed
DYEAR=1900
DGENRE=
TTITLE0=If You Don't Want Me Baby
TTITLE1=I'm Leavin'
TTITLE2=When I Woke Up This Morning
TTITLE3=I Got To Keep Rolling
TTITLE4=Five Years Of Good Lovin'
TTITLE5=Shame, Shame, Shame
TTITLE6=Life Is Funny
TTITLE7=Run Here To Me Baby
TTITLE8=When Two People In Love
TTITLE9=My Baby Told Me
TTITLE10=Just Can't Sleep At Night
TTITLE11=If The Four Winds Don't Change
TTITLE12=I'll Be Home Some Day
TTITLE13=Why Can't I Come In
TTITLE14=Honey It's Time For Love
TTITLE15=Tribute To A Friend
TTITLE16=Poor Country Boy
TTITLE17=Texas Is So Doggone Big
TTITLE18=Somebody Help Me
TTITLE19=Don't Cry
TTITLE20=Crazy About That Miniskirt
EXTD=(C) 1989 Flyright - Fly CD 15
EXTT0=
EXTT1=
EXTT2=
EXTT3=
EXTT4=
EXTT5=
EXTT6=
EXTT7=
EXTT8=
EXTT9=
EXTT10=
EXTT11=
EXTT12=
EXTT13=
EXTT14=
EXTT15=
EXTT16=
EXTT17=
EXTT18=
EXTT19=
EXTT20=
PLAYORDER=
